<svg width="142" height="122" viewBox="0 0 142 122" fill="none" xmlns="http://www.w3.org/2000/svg">
<g filter="url(#filter0_i_75_80)">
<path d="M55.0541 121H102.081L102.622 119.904L102.081 117.712C102.261 117.347 102.622 116.507 102.622 116.068C102.622 115.63 102.261 114.059 102.081 113.329V108.397L101.541 107.301L102.622 104.562V103.466L103.703 100.726L104.243 99.0822L105.324 97.4384L106.946 94.6986L107.486 93.0548L109.649 88.6712L110.73 85.3836V82.6438L111.27 80.4521L111.811 79.3562L113.973 77.1644L115.054 75.5205L119.378 73.3288L121 71.6849L122.081 71.137L123.703 70.589L125.324 68.3973C125.685 68.2146 126.405 67.7397 126.405 67.3014C126.405 66.863 127.486 65.2922 128.027 64.5616L129.108 63.4658L130.189 60.726L131.811 59.6301L133.432 55.7945L134.514 54.6986C134.874 53.968 135.595 52.3973 135.595 51.9589C135.595 51.5205 135.955 51.411 136.135 51.411L138.297 47.0274L139.378 45.3836L141 42.0959L140.459 39.3562V38.2603L138.838 36.6164L137.216 35.5205L136.676 34.4247L133.973 31.6849L132.892 31.137L130.73 28.9452L129.649 28.3973L127.486 26.2055L126.405 25.6575H125.324C124.892 25.6575 122.622 24.1963 121.541 23.4658C121.18 23.2831 120.351 22.9178 119.919 22.9178C119.378 22.9178 117.757 21.8219 117.216 21.8219C116.676 21.8219 116.135 21.274 115.595 21.274C115.162 21.274 114.694 20.9087 114.514 20.726C113.613 19.9954 111.703 18.4247 111.27 17.9863L110.73 17.4384L108.027 16.8904C107.306 16.7078 105.757 16.3425 105.324 16.3425H101.541C101.18 16.5251 100.351 16.8904 99.9189 16.8904C99.3784 16.8904 98.8378 17.4384 98.2973 17.4384C97.7568 17.4384 97.2162 17.9863 96.6757 17.9863C96.2432 17.9863 96.1351 18.7169 96.1351 19.0822L93.973 20.726L91.2703 23.4658L90.7297 24.5616L90.1892 25.1096L90.7297 26.2055V26.7534L92.3513 30.0411L93.973 31.6849L96.1351 32.7808L97.2162 32.2329V31.6849H101L102.622 30.589L104.243 30.0411L104.784 28.3973L105.324 29.4932L105.865 30.0411H108.568L109.108 31.137L110.189 32.2329C110.369 32.5982 110.73 33.4384 110.73 33.8767C110.73 34.3151 111.45 35.1553 111.811 35.5205C112.171 35.8858 112.892 36.726 112.892 37.1644C112.892 37.6027 113.252 38.0776 113.432 38.2603L114.514 39.9041L115.054 40.4521L115.595 41.5479L118.297 44.2877H113.973L112.892 44.8356L111.27 45.3836H110.73L110.189 45.9315L109.108 46.4795L106.946 48.6712C106.766 49.0365 106.297 49.8767 105.865 50.3151C105.324 50.863 105.865 50.863 105.324 50.863C104.892 50.863 104.784 51.9589 104.784 52.5068L104.243 53.0548H100.459C100.027 53.0548 99.5586 53.4201 99.3784 53.6027C98.8378 53.7854 97.6486 54.1507 97.2162 54.1507C96.6757 54.1507 96.6757 54.6986 96.1351 54.6986H95.054L92.8919 55.7945C92.5315 55.7945 91.8108 55.9041 91.8108 56.3425C91.8108 56.7808 90.7297 56.5251 90.1892 56.3425L88.5676 56.8904H88.027C87.5946 56.8904 87.4865 57.2557 87.4865 57.4384L86.4054 57.9863H82.0811L81.5405 57.4384L81 56.3425V55.2466L81.5405 54.6986V53.0548C81.5405 52.6164 81.9009 52.5068 82.0811 52.5068L82.6216 50.863V48.1233L83.1622 47.0274C83.5225 46.8447 84.2432 46.3699 84.2432 45.9315C84.2432 45.4931 84.6036 45.3836 84.7838 45.3836C85.1441 45.0183 85.8649 44.1781 85.8649 43.7397V39.9041L85.3243 38.2603C85.1441 38.0776 84.7838 37.6027 84.7838 37.1644C84.7838 36.6164 84.2432 37.1644 84.2432 36.6164V30.589L83.7027 28.3973L84.2432 27.8493C84.4234 27.484 84.7838 26.6438 84.7838 26.2055V23.4658L84.2432 22.9178L83.1622 22.3699L82.0811 20.726L81.5405 20.1781L80.4595 18.5342L79.3784 17.9863L76.1351 15.7945C75.9549 15.6119 75.4865 15.2466 75.0541 15.2466H74.5135C74.1532 15.0639 73.3243 14.6986 72.8919 14.6986H72.3513L70.1892 14.1507H69.1081L68.027 14.6986H66.9459L66.4054 15.2466L65.3243 15.7945L61.5405 19.6301L61 20.726L60.4595 21.274L59.9189 22.3699L59.3784 22.9178L58.8378 24.5616V27.8493L58.2973 28.3973V32.2329L58.8378 33.3288V37.1644L57.7568 37.7123V43.7397L58.2973 44.8356L58.8378 45.3836V46.4795L60.4595 48.1233V49.2192L61.5405 49.7671V50.863L62.0811 51.9589V53.6027L62.6216 54.6986V56.3425H62.0811L58.8378 54.6986L55.0541 53.6027L52.8919 52.5068L51.2703 51.9589L49.1081 51.411L45.8649 50.3151H43.7027L42.0811 50.863H40.4595L37.7568 48.1233L36.6757 47.5753L34.5135 45.9315L33.973 45.3836L32.3514 44.8356C31.8108 44.2877 30.6216 43.1918 30.1892 43.1918C29.6486 43.1918 29.1081 42.6438 28.5676 42.6438H27.4865L25.3243 42.0959H21.5405L21 41.5479V41L21.5405 39.9041L22.0811 38.2603V30.589L21.5405 27.3014V25.6575L22.6216 22.9178L23.7027 20.726L24.7838 20.1781H25.8649L28.5676 19.0822L32.8919 16.8904L35.0541 14.6986L35.5946 13.0548L36.6757 11.411L38.2973 10.3151L39.3784 7.57534V5.93151L37.7568 3.19178L36.6757 1.54795H35.0541C34.5135 1.54795 32.8919 1 32.3514 1C31.8108 1 30.1892 1.54795 29.6486 1.54795H25.3243L23.1622 3.19178L20.4595 5.93151L19.3784 8.12329L17.7568 10.3151L16.6757 11.9589L16.1351 13.6027L13.973 15.7945L12.8919 17.4384L10.7297 19.6301L9.10811 21.8219L8.02703 22.9178L5.86486 25.6575L4.78378 27.8493L2.62162 31.6849L2.08108 33.3288L1.54054 35.5205L1 36.6164V45.3836L1.54054 46.4795L3.16216 49.2192L4.78378 50.3151L6.40541 52.5068L9.10811 54.6986L11.2703 55.7945L12.8919 57.4384L15.0541 60.1781L16.6757 62.3699L18.2973 64.0137L21 66.2055L24.7838 69.4931L26.4054 71.137L30.1892 73.3288L32.8919 74.9726L35.0541 77.7123L36.1351 79.9041L37.2162 83.1918V85.3836L37.7568 88.6712L39.9189 91.411L41.5405 93.6027L43.7027 95.7945L44.7838 97.4384L46.4054 98.5342L47.4865 99.0822L48.5676 101.274V101.822L49.6486 102.918L50.7297 104.562L51.2703 106.205C51.4504 106.571 51.8108 107.411 51.8108 107.849C51.8108 108.288 52.5315 109.128 52.8919 109.493L53.4324 110.589L53.973 112.233L54.5135 113.329V114.425L55.0541 115.521V121Z" fill="url(#paint0_linear_75_80)"/>
</g>
<path d="M55.0541 121H102.081L102.622 119.904L102.081 117.712C102.261 117.347 102.622 116.507 102.622 116.068C102.622 115.63 102.261 114.059 102.081 113.329V108.397L101.541 107.301L102.622 104.562V103.466L103.703 100.726L104.243 99.0822L105.324 97.4384L106.946 94.6986L107.486 93.0548L109.649 88.6712L110.73 85.3836V82.6438L111.27 80.4521L111.811 79.3562L113.973 77.1644L115.054 75.5205L119.378 73.3288L121 71.6849L122.081 71.137L123.703 70.589L125.324 68.3973C125.685 68.2146 126.405 67.7397 126.405 67.3014C126.405 66.863 127.486 65.2922 128.027 64.5616L129.108 63.4658L130.189 60.726L131.811 59.6301L133.432 55.7945L134.514 54.6986C134.874 53.968 135.595 52.3973 135.595 51.9589C135.595 51.5205 135.955 51.411 136.135 51.411L138.297 47.0274L139.378 45.3836L141 42.0959L140.459 39.3562V38.2603L138.838 36.6164L137.216 35.5205L136.676 34.4247L133.973 31.6849L132.892 31.137L130.73 28.9452L129.649 28.3973L127.486 26.2055L126.405 25.6575H125.324C124.892 25.6575 122.622 24.1963 121.541 23.4658C121.18 23.2831 120.351 22.9178 119.919 22.9178C119.378 22.9178 117.757 21.8219 117.216 21.8219C116.676 21.8219 116.135 21.274 115.595 21.274C115.162 21.274 114.694 20.9087 114.514 20.726C113.613 19.9954 111.703 18.4247 111.27 17.9863L110.73 17.4384L108.027 16.8904C107.306 16.7078 105.757 16.3425 105.324 16.3425H101.541C101.18 16.5251 100.351 16.8904 99.9189 16.8904C99.3784 16.8904 98.8378 17.4384 98.2973 17.4384C97.7568 17.4384 97.2162 17.9863 96.6757 17.9863C96.2432 17.9863 96.1351 18.7169 96.1351 19.0822L93.973 20.726L91.2703 23.4658L90.7297 24.5616L90.1892 25.1096L90.7297 26.2055V26.7534L92.3513 30.0411L93.973 31.6849L96.1351 32.7808L97.2162 32.2329V31.6849H101L102.622 30.589L104.243 30.0411L104.784 28.3973L105.324 29.4932L105.865 30.0411H108.568L109.108 31.137L110.189 32.2329C110.369 32.5982 110.73 33.4384 110.73 33.8767C110.73 34.3151 111.45 35.1553 111.811 35.5205C112.171 35.8858 112.892 36.726 112.892 37.1644C112.892 37.6027 113.252 38.0776 113.432 38.2603L114.514 39.9041L115.054 40.4521L115.595 41.5479L118.297 44.2877H113.973L112.892 44.8356L111.27 45.3836H110.73L110.189 45.9315L109.108 46.4795L106.946 48.6712C106.766 49.0365 106.297 49.8767 105.865 50.3151C105.324 50.863 105.865 50.863 105.324 50.863C104.892 50.863 104.784 51.9589 104.784 52.5068L104.243 53.0548H100.459C100.027 53.0548 99.5586 53.4201 99.3784 53.6027C98.8378 53.7854 97.6486 54.1507 97.2162 54.1507C96.6757 54.1507 96.6757 54.6986 96.1351 54.6986H95.054L92.8919 55.7945C92.5315 55.7945 91.8108 55.9041 91.8108 56.3425C91.8108 56.7808 90.7297 56.5251 90.1892 56.3425L88.5676 56.8904H88.027C87.5946 56.8904 87.4865 57.2557 87.4865 57.4384L86.4054 57.9863H82.0811L81.5405 57.4384L81 56.3425V55.2466L81.5405 54.6986V53.0548C81.5405 52.6164 81.9009 52.5068 82.0811 52.5068L82.6216 50.863V48.1233L83.1622 47.0274C83.5225 46.8447 84.2432 46.3699 84.2432 45.9315C84.2432 45.4931 84.6036 45.3836 84.7838 45.3836C85.1441 45.0183 85.8649 44.1781 85.8649 43.7397V39.9041L85.3243 38.2603C85.1441 38.0776 84.7838 37.6027 84.7838 37.1644C84.7838 36.6164 84.2432 37.1644 84.2432 36.6164V30.589L83.7027 28.3973L84.2432 27.8493C84.4234 27.484 84.7838 26.6438 84.7838 26.2055V23.4658L84.2432 22.9178L83.1622 22.3699L82.0811 20.726L81.5405 20.1781L80.4595 18.5342L79.3784 17.9863L76.1351 15.7945C75.9549 15.6119 75.4865 15.2466 75.0541 15.2466H74.5135C74.1532 15.0639 73.3243 14.6986 72.8919 14.6986H72.3513L70.1892 14.1507H69.1081L68.027 14.6986H66.9459L66.4054 15.2466L65.3243 15.7945L61.5405 19.6301L61 20.726L60.4595 21.274L59.9189 22.3699L59.3784 22.9178L58.8378 24.5616V27.8493L58.2973 28.3973V32.2329L58.8378 33.3288V37.1644L57.7568 37.7123V43.7397L58.2973 44.8356L58.8378 45.3836V46.4795L60.4595 48.1233V49.2192L61.5405 49.7671V50.863L62.0811 51.9589V53.6027L62.6216 54.6986V56.3425H62.0811L58.8378 54.6986L55.0541 53.6027L52.8919 52.5068L51.2703 51.9589L49.1081 51.411L45.8649 50.3151H43.7027L42.0811 50.863H40.4595L37.7568 48.1233L36.6757 47.5753L34.5135 45.9315L33.973 45.3836L32.3514 44.8356C31.8108 44.2877 30.6216 43.1918 30.1892 43.1918C29.6486 43.1918 29.1081 42.6438 28.5676 42.6438H27.4865L25.3243 42.0959H21.5405L21 41.5479V41L21.5405 39.9041L22.0811 38.2603V30.589L21.5405 27.3014V25.6575L22.6216 22.9178L23.7027 20.726L24.7838 20.1781H25.8649L28.5676 19.0822L32.8919 16.8904L35.0541 14.6986L35.5946 13.0548L36.6757 11.411L38.2973 10.3151L39.3784 7.57534V5.93151L37.7568 3.19178L36.6757 1.54795H35.0541C34.5135 1.54795 32.8919 1 32.3514 1C31.8108 1 30.1892 1.54795 29.6486 1.54795H25.3243L23.1622 3.19178L20.4595 5.93151L19.3784 8.12329L17.7568 10.3151L16.6757 11.9589L16.1351 13.6027L13.973 15.7945L12.8919 17.4384L10.7297 19.6301L9.10811 21.8219L8.02703 22.9178L5.86486 25.6575L4.78378 27.8493L2.62162 31.6849L2.08108 33.3288L1.54054 35.5205L1 36.6164V45.3836L1.54054 46.4795L3.16216 49.2192L4.78378 50.3151L6.40541 52.5068L9.10811 54.6986L11.2703 55.7945L12.8919 57.4384L15.0541 60.1781L16.6757 62.3699L18.2973 64.0137L21 66.2055L24.7838 69.4931L26.4054 71.137L30.1892 73.3288L32.8919 74.9726L35.0541 77.7123L36.1351 79.9041L37.2162 83.1918V85.3836L37.7568 88.6712L39.9189 91.411L41.5405 93.6027L43.7027 95.7945L44.7838 97.4384L46.4054 98.5342L47.4865 99.0822L48.5676 101.274V101.822L49.6486 102.918L50.7297 104.562L51.2703 106.205C51.4504 106.571 51.8108 107.411 51.8108 107.849C51.8108 108.288 52.5315 109.128 52.8919 109.493L53.4324 110.589L53.973 112.233L54.5135 113.329V114.425L55.0541 115.521V121Z" stroke="black" stroke-width="1.5"/>
<defs>
<filter id="filter0_i_75_80" x="0.25" y="0.25" width="141.535" height="125.5" filterUnits="userSpaceOnUse" color-interpolation-filters="sRGB">
<feFlood flood-opacity="0" result="BackgroundImageFix"/>
<feBlend mode="normal" in="SourceGraphic" in2="BackgroundImageFix" result="shape"/>
<feColorMatrix in="SourceAlpha" type="matrix" values="0 0 0 0 0 0 0 0 0 0 0 0 0 0 0 0 0 0 127 0" result="hardAlpha"/>
<feOffset dy="4"/>
<feGaussianBlur stdDeviation="2"/>
<feComposite in2="hardAlpha" operator="arithmetic" k2="-1" k3="1"/>
<feColorMatrix type="matrix" values="0 0 0 0 0 0 0 0 0 0 0 0 0 0 0 0 0 0 0.25 0"/>
<feBlend mode="normal" in2="shape" result="effect1_innerShadow_75_80"/>
</filter>
<linearGradient id="paint0_linear_75_80" x1="71" y1="1" x2="71" y2="121" gradientUnits="userSpaceOnUse">
<stop offset="0.168269" stop-color="#FF0000"/>
<stop offset="0.985577"/>
</linearGradient>
</defs>
</svg>
