<?xml version="1.0" standalone="no"?>
<!DOCTYPE svg PUBLIC "-//W3C//DTD SVG 20010904//EN"
 "http://www.w3.org/TR/2001/REC-SVG-20010904/DTD/svg10.dtd">
<svg version="1.0" xmlns="http://www.w3.org/2000/svg"
 width="1024.000000pt" height="1024.000000pt" viewBox="0 0 1024.000000 1024.000000"
 preserveAspectRatio="xMidYMid meet">

<g transform="translate(0.000000,1024.000000) scale(0.100000,-0.100000)"
fill="#000000" stroke="none">
<path d="M3827 9349 c-133 -32 -241 -134 -289 -274 l-17 -50 -308 -6 c-326 -7
-365 -11 -512 -63 -357 -125 -660 -453 -747 -808 -8 -34 -79 -463 -158 -953
l-142 -890 199 -3 c110 -1 201 -1 203 1 2 2 64 385 139 853 75 467 142 875
150 906 52 208 235 411 454 503 114 48 173 55 464 55 l267 0 0 -24 c0 -41 68
-161 116 -206 25 -23 75 -56 112 -73 l67 -32 1316 0 1315 0 76 38 c111 54 193
157 214 265 l6 32 263 0 c287 0 353 -8 467 -56 200 -84 370 -263 438 -459 11
-31 81 -438 155 -904 74 -465 138 -858 141 -873 l6 -28 199 0 c170 0 199 2
199 15 0 31 -281 1773 -296 1835 -89 364 -391 685 -764 812 -142 48 -235 58
-536 58 l-272 0 -6 33 c-21 107 -103 210 -214 264 l-76 38 -1295 2 c-733 0
-1312 -3 -1334 -8z"/>
<path d="M835 5924 c-38 -7 -108 -32 -155 -55 -210 -104 -332 -318 -317 -558
4 -69 111 -511 547 -2251 317 -1270 553 -2193 570 -2233 48 -113 119 -216 220
-318 145 -148 311 -246 507 -302 l78 -22 2805 -3 c2017 -2 2827 0 2883 8 348
50 694 318 828 642 18 44 245 930 571 2233 l541 2160 1 115 c0 84 -5 131 -18
175 -47 157 -153 283 -297 353 -161 79 251 72 -4466 71 -3550 -1 -4239 -3
-4298 -15z m1124 -1131 c7 -38 33 -200 59 -361 l48 -292 -405 2 -405 3 -88
350 c-48 193 -88 353 -88 358 0 4 195 7 434 7 l434 0 11 -67z m1985 25 c5 -39
37 -620 36 -660 0 -17 -43 -18 -754 -18 l-754 0 -11 68 c-7 37 -33 199 -59
360 l-48 292 792 0 793 0 5 -42z m1986 10 c0 -18 -7 -180 -17 -360 l-17 -328
-758 0 -758 0 0 30 c0 39 -28 571 -34 638 l-5 52 795 0 794 0 0 -32z m1990 20
c0 -7 -25 -169 -57 -360 l-57 -348 -753 0 -753 0 0 28 c-1 51 32 667 36 680 5
18 1584 18 1584 0z m1276 -5 c-3 -10 -39 -155 -81 -323 -42 -168 -80 -322 -86
-342 l-10 -38 -405 0 -404 0 5 23 c3 12 28 162 55 332 28 171 53 322 56 338
l6 27 434 0 c410 0 435 -1 430 -17z m-7066 -1075 c0 -7 52 -326 115 -709 63
-384 115 -702 115 -708 0 -8 -95 -11 -327 -9 l-327 3 -178 710 c-97 391 -178
713 -178 718 0 4 176 7 390 7 299 0 390 -3 390 -12z m1874 -40 c4 -42 77
-1352 76 -1380 0 -5 -295 -8 -655 -8 l-655 0 -5 23 c-2 12 -54 326 -115 697
-60 371 -112 685 -115 698 l-5 22 734 0 735 0 5 -52z m1845 -435 c-15 -269
-33 -593 -40 -720 l-12 -233 -659 0 c-643 0 -658 0 -658 19 0 32 -69 1291 -74
1359 l-5 62 737 0 737 0 -26 -487z m1895 470 c-4 -18 -234 -1412 -234 -1419 0
-2 -295 -4 -655 -4 -617 0 -655 1 -655 18 -1 42 72 1379 76 1400 l4 22 734 0
c694 0 734 -1 730 -17z m1182 0 c-3 -10 -80 -317 -171 -683 -91 -366 -170
-682 -176 -702 l-10 -38 -324 0 c-293 0 -325 2 -325 16 0 9 52 330 115 714 63
383 115 700 115 703 0 4 176 7 391 7 367 0 390 -1 385 -17z m-6404 -2378 c53
-324 98 -593 98 -597 0 -5 -52 -8 -115 -8 -132 0 -202 18 -289 74 -66 43 -152
135 -176 188 -14 33 -240 909 -240 933 0 3 140 4 312 3 l312 -3 98 -590z
m1582 523 c3 -40 17 -287 31 -548 14 -261 27 -499 29 -528 l5 -52 -572 2 -572
3 -97 585 c-53 322 -97 591 -97 598 -1 9 132 12 633 12 l634 0 6 -72z m1670
25 c-2 -27 -15 -262 -29 -523 -14 -261 -28 -510 -31 -552 l-6 -78 -568 0 -569
0 -5 53 c-3 28 -17 270 -31 537 -14 267 -28 513 -31 548 l-6 62 641 0 640 0
-5 -47z m1672 20 c-3 -16 -46 -275 -96 -578 -49 -302 -92 -560 -95 -572 l-5
-23 -571 0 -571 0 6 68 c3 37 17 288 31 557 14 270 28 509 31 533 l5 42 635 0
636 0 -6 -27z m1030 10 c-3 -10 -53 -209 -110 -443 -76 -304 -114 -443 -137
-487 -40 -81 -126 -160 -226 -210 -76 -37 -79 -38 -211 -42 l-135 -3 5 28 c2
16 47 287 99 602 l94 572 313 0 c294 0 313 -1 308 -17z"/>
</g>
</svg>
