<?xml version="1.0" standalone="no"?>
<!DOCTYPE svg PUBLIC "-//W3C//DTD SVG 20010904//EN"
 "http://www.w3.org/TR/2001/REC-SVG-20010904/DTD/svg10.dtd">
<svg version="1.0" xmlns="http://www.w3.org/2000/svg"
 width="1009.000000pt" height="1009.000000pt" viewBox="0 0 1009.000000 1009.000000"
 preserveAspectRatio="xMidYMid meet">

<g transform="translate(0.000000,1009.000000) scale(0.100000,-0.100000)"
fill="#000000" stroke="none">
<path d="M4875 9780 c-990 -46 -1926 -413 -2705 -1063 -1230 -1025 -1857
-2647 -1649 -4267 115 -900 463 -1701 1043 -2405 130 -158 478 -503 641 -636
401 -328 817 -571 1281 -749 151 -58 413 -140 574 -180 118 -29 396 -76 575
-96 207 -24 672 -25 875 -1 746 88 1367 309 1945 692 175 116 213 149 250 216
39 73 47 191 16 261 -49 114 -152 182 -277 181 -86 0 -146 -25 -252 -105 -176
-133 -531 -320 -792 -416 -875 -325 -1794 -323 -2679 4 -679 252 -1315 721
-1769 1304 -294 379 -498 759 -651 1217 -100 299 -163 588 -197 898 -23 215
-23 651 0 860 125 1152 676 2160 1566 2867 405 322 939 581 1453 707 329 81
606 114 942 114 520 0 953 -82 1430 -270 624 -246 1164 -650 1610 -1203 946
-1173 1184 -2806 612 -4195 -139 -340 -274 -575 -547 -955 -54 -75 -78 -169
-61 -244 48 -216 278 -314 463 -197 55 35 104 95 237 291 470 694 741 1460
811 2295 13 155 13 540 -1 725 -64 904 -399 1803 -942 2525 -375 500 -884 948
-1424 1254 -121 68 -414 209 -533 256 -351 138 -730 237 -1099 285 -129 17
-519 43 -571 38 -8 0 -87 -4 -175 -8z"/>
<path d="M4830 7712 c-124 -71 -558 -316 -965 -544 -855 -480 -838 -470 -839
-483 -1 -6 179 -118 399 -250 220 -132 549 -330 730 -439 657 -397 856 -516
885 -531 l30 -16 538 322 c1146 687 1497 902 1496 915 -1 10 -13 17 -389 226
-148 83 -418 235 -600 338 -860 489 -1039 590 -1049 590 -6 0 -112 -58 -236
-128z"/>
<path d="M2757 6333 c-4 -3 -7 -608 -7 -1343 0 -1261 1 -1338 18 -1352 17 -15
71 -48 1087 -649 319 -188 674 -398 789 -467 119 -70 212 -120 217 -115 5 5 8
595 7 1348 l-3 1339 -170 101 c-166 99 -350 209 -955 567 -162 96 -443 262
-625 368 -181 106 -335 197 -341 201 -6 5 -14 6 -17 2z"/>
<path d="M7170 6224 c-107 -64 -258 -153 -335 -199 -222 -131 -1328 -785
-1452 -859 l-113 -67 0 -1349 c0 -743 3 -1350 6 -1350 7 0 47 24 804 473 612
363 790 470 1073 639 l217 131 0 1348 c0 742 -1 1349 -2 1349 -2 0 -91 -52
-198 -116z"/>
</g>
</svg>
