<?xml version="1.0" standalone="no"?>
<!DOCTYPE svg PUBLIC "-//W3C//DTD SVG 20010904//EN"
 "http://www.w3.org/TR/2001/REC-SVG-20010904/DTD/svg10.dtd">
<svg version="1.0" xmlns="http://www.w3.org/2000/svg"
 width="632.000000pt" height="630.000000pt" viewBox="0 0 632.000000 630.000000"
 preserveAspectRatio="xMidYMid meet">

<g transform="translate(0.000000,630.000000) scale(0.100000,-0.100000)"
fill="#000000" stroke="none">
<path d="M3030 6229 c-856 -60 -1568 -718 -1691 -1564 -19 -128 -17 -390 3
-490 111 -545 561 -1379 1316 -2440 190 -268 235 -311 368 -356 162 -54 336
-8 460 123 50 53 263 350 456 638 490 732 787 1270 943 1710 87 246 109 360
109 565 0 176 -13 291 -51 435 -227 865 -1027 1441 -1913 1379z m304 -1054
c85 -18 213 -79 296 -141 127 -96 243 -279 276 -434 20 -95 20 -244 0 -339
-31 -148 -135 -318 -255 -417 -84 -69 -225 -140 -321 -160 -96 -20 -244 -20
-340 0 -96 20 -237 91 -321 160 -120 99 -224 269 -255 417 -20 95 -20 244 0
339 33 155 149 338 276 434 81 60 211 123 292 141 84 18 266 18 352 0z"/>
<path d="M1495 2365 c-104 -24 -212 -50 -240 -58 -334 -95 -608 -213 -825
-356 -103 -67 -271 -233 -322 -317 -82 -135 -117 -320 -85 -455 53 -224 204
-402 486 -574 908 -553 2979 -709 4446 -335 447 115 785 264 1030 456 279 217
383 493 290 769 -38 114 -87 187 -200 300 -257 258 -688 449 -1318 586 -81 17
-149 30 -151 28 -1 -2 -18 -29 -38 -59 -19 -30 -70 -109 -113 -175 -160 -245
-166 -255 -153 -260 7 -2 81 -15 163 -30 536 -93 1025 -276 1223 -459 108 -99
97 -170 -43 -283 -246 -197 -784 -373 -1415 -462 -656 -93 -1484 -93 -2140 0
-631 89 -1169 265 -1415 462 -140 113 -151 184 -43 283 199 183 687 366 1223
459 83 15 156 28 163 30 13 5 7 14 -159 270 -47 72 -98 151 -114 177 -17 26
-37 47 -45 47 -8 0 -100 -20 -205 -44z"/>
</g>
</svg>
