<svg width="256" height="256" viewBox="0 0 256 256" xmlns="http://www.w3.org/2000/svg">
  <path d="M 62 38
           C 78 38, 94 46, 104 62
           L 118 84
           C 124 94, 122 106, 114 114
           L 102 126
           C 108 142, 114 152, 130 158
           L 142 146
           C 150 138, 162 136, 172 142
           L 194 156
           C 210 166, 218 182, 218 198
           C 218 210, 210 218, 198 218
           C 112 218, 38 144, 38 58
           C 38 46, 46 38, 58 38
           Z"
        fill="#000000"/>
</svg>
