<?xml version="1.0" standalone="no"?>
<!DOCTYPE svg PUBLIC "-//W3C//DTD SVG 20010904//EN"
 "http://www.w3.org/TR/2001/REC-SVG-20010904/DTD/svg10.dtd">
<svg version="1.0" xmlns="http://www.w3.org/2000/svg"
 width="980.000000pt" height="980.000000pt" viewBox="0 0 980.000000 980.000000"
 preserveAspectRatio="xMidYMid meet">

<g transform="translate(0.000000,980.000000) scale(0.100000,-0.100000)"
fill="#000000" stroke="none">
<path d="M3135 9793 c-823 -74 -1559 -416 -2135 -993 -540 -540 -867 -1203
-977 -1980 -25 -179 -25 -691 0 -870 57 -402 156 -727 327 -1075 100 -204 190
-352 313 -518 437 -587 1024 -1009 1712 -1230 887 -285 1873 -190 2687 258
117 65 336 207 419 271 30 24 59 44 65 44 5 0 193 -184 419 -410 l409 -409
-26 -28 c-15 -15 -39 -55 -55 -88 -24 -51 -28 -73 -28 -145 1 -160 -102 -44
1259 -1408 l1211 -1212 85 0 85 0 447 447 448 448 0 45 0 45 -1232 1231
c-1386 1384 -1268 1278 -1428 1279 -72 0 -94 -4 -145 -28 -33 -16 -73 -40 -88
-55 l-28 -26 -411 411 -411 411 76 99 c595 787 821 1745 641 2723 -80 439
-281 919 -542 1295 -164 237 -433 529 -652 706 -531 431 -1136 682 -1815 754
-127 13 -515 18 -630 8z m589 -728 c223 -26 426 -74 635 -151 125 -46 372
-167 486 -239 282 -177 571 -448 759 -710 470 -655 625 -1472 426 -2250 -91
-357 -233 -655 -450 -944 -378 -503 -892 -847 -1495 -1001 -627 -161 -1291
-91 -1865 194 -295 148 -521 314 -757 559 -195 204 -342 414 -468 672 -145
296 -223 560 -261 892 -20 171 -14 533 11 693 54 348 181 703 354 989 126 208
232 343 411 522 449 450 1012 715 1660 782 101 11 437 6 554 -8z"/>
</g>
</svg>
