<?xml version="1.0" standalone="no"?>
<!DOCTYPE svg PUBLIC "-//W3C//DTD SVG 20010904//EN"
 "http://www.w3.org/TR/2001/REC-SVG-20010904/DTD/svg10.dtd">
<svg version="1.0" xmlns="http://www.w3.org/2000/svg"
 width="1492.000000pt" height="1054.000000pt" viewBox="0 0 1492.000000 1054.000000"
 preserveAspectRatio="xMidYMid meet">

<g transform="translate(0.000000,1054.000000) scale(0.100000,-0.100000)"
fill="#000000" stroke="none">
<path d="M9570 8456 c-265 -115 -442 -197 -642 -297 l-137 -69 -21 -67 c-67
-218 -105 -521 -97 -783 15 -483 180 -1149 406 -1642 l31 -68 58 26 c31 14 60
28 64 32 4 4 -9 43 -28 87 -180 410 -311 900 -365 1365 -16 135 -15 406 0 535
15 119 56 338 74 389 12 34 23 41 272 161 143 70 359 172 480 227 121 56 224
105 229 109 12 11 -52 99 -72 98 -9 0 -123 -46 -252 -103z"/>
<path d="M9947 8439 c-216 -51 -366 -312 -414 -719 -65 -561 127 -1407 496
-2176 189 -393 430 -768 765 -1189 53 -66 96 -123 96 -126 0 -10 -46 -18 -145
-25 -170 -12 -393 35 -535 113 -194 107 -491 504 -720 963 -34 69 -63 126 -65
128 -1 1 -260 -115 -576 -259 -649 -295 -857 -389 -1884 -846 -401 -179 -824
-368 -940 -422 l-210 -96 -80 1 c-141 0 -259 60 -360 182 -93 112 -190 329
-197 442 l-3 40 395 188 c217 103 404 193 414 199 18 10 15 18 -44 129 -123
234 -322 546 -445 699 -197 246 -407 425 -590 502 -262 111 -539 28 -710 -212
-205 -287 -250 -793 -125 -1405 125 -612 402 -1277 824 -1975 20 -33 36 -63
36 -66 0 -25 -183 -42 -311 -29 -265 26 -411 98 -598 296 -247 261 -522 701
-681 1089 -18 44 -36 84 -40 88 -17 19 -117 -160 -159 -282 -44 -130 -62 -224
-68 -366 -7 -176 17 -328 82 -523 25 -74 45 -136 45 -138 0 -2 -48 -4 -108 -4
l-107 0 -42 63 c-58 89 -139 234 -158 284 -10 24 -21 43 -25 43 -18 0 -85 -88
-116 -154 -192 -406 -37 -950 345 -1211 l71 -48 199 76 c109 42 203 77 209 77
5 0 22 -17 38 -38 66 -85 181 -206 281 -295 120 -105 337 -267 358 -267 15 0
182 59 392 137 l131 50 49 -37 c77 -58 191 -126 288 -171 298 -138 757 -162
1228 -63 160 33 211 49 263 79 175 103 298 440 356 980 20 182 16 694 -6 948
-11 120 -15 212 -10 217 10 8 146 72 554 260 140 65 534 247 875 405 883 409
1222 565 1228 565 3 0 37 -45 76 -99 97 -136 221 -287 388 -471 348 -385 686
-658 1008 -816 123 -60 279 -114 330 -114 42 0 358 118 850 318 214 87 221 90
258 138 88 113 153 287 178 472 19 139 1 395 -37 548 -5 18 7 29 78 69 206
119 329 251 393 425 24 63 29 95 33 203 5 147 -6 232 -50 387 -25 85 -28 106
-17 112 8 5 102 59 210 121 108 61 206 119 217 127 31 23 46 199 32 368 -32
381 -162 706 -353 890 -72 69 -146 108 -229 121 -197 32 -387 -122 -428 -347
-16 -90 -14 -282 5 -398 8 -54 34 -169 56 -254 56 -210 54 -197 32 -208 -10
-5 -121 -49 -248 -97 l-230 -87 -79 83 c-174 187 -297 435 -357 729 -29 139
-37 414 -15 540 23 131 60 250 108 348 l41 82 -29 31 c-50 54 -141 119 -210
151 -173 81 -311 7 -427 -228 -83 -167 -137 -424 -137 -654 0 -491 183 -1073
524 -1659 36 -62 66 -118 66 -122 0 -15 -93 -10 -151 7 -130 39 -302 149 -428
273 -224 222 -420 644 -506 1088 -46 234 -58 533 -29 734 31 228 130 492 238
637 25 34 46 66 46 71 0 6 -41 46 -92 91 -255 226 -491 329 -661 289z m2845
-1511 c-33 -134 -13 -390 43 -549 l14 -40 -56 -24 c-30 -14 -57 -25 -59 -25
-2 0 -17 43 -34 97 -55 171 -74 383 -47 512 l12 55 60 17 c87 25 84 27 67 -43z
m-4494 -2504 l22 -45 -77 -36 c-285 -131 -1355 -604 -1358 -601 -10 12 -45 90
-45 100 0 7 103 57 233 112 224 96 708 307 1027 447 85 38 160 69 166 69 5 0
20 -20 32 -46z m3426 -819 c15 -25 27 -47 25 -49 -7 -6 -574 -244 -598 -251
-18 -6 -31 1 -62 31 -21 21 -39 41 -39 45 0 6 140 67 520 227 52 22 102 41
110 41 8 1 28 -19 44 -44z m-8048 -957 c136 -238 413 -634 612 -876 51 -62 90
-116 88 -121 -3 -4 -30 -16 -61 -27 -51 -17 -58 -17 -68 -3 -7 8 -57 71 -111
138 -127 158 -286 381 -404 567 -91 143 -190 313 -195 335 -1 9 55 51 90 68 1
1 23 -36 49 -81z m1582 -600 c164 -219 380 -379 612 -453 127 -41 302 -47 420
-14 47 13 89 24 94 24 9 0 36 -78 36 -107 0 -11 -20 -23 -67 -40 -60 -20 -86
-23 -228 -23 -137 0 -171 3 -240 23 -298 86 -533 254 -732 522 -34 47 -63 90
-63 95 0 10 78 65 92 65 4 0 38 -42 76 -92z"/>
<path d="M11315 8249 c-182 -51 -511 -151 -518 -158 -4 -4 2 -34 14 -65 19
-48 26 -57 43 -53 12 2 142 43 291 91 l269 86 71 -33 c95 -45 183 -121 233
-201 l42 -65 60 21 c33 11 60 22 60 26 0 11 -54 99 -90 143 -73 93 -181 170
-296 209 -69 24 -89 24 -179 -1z"/>
<path d="M9279 7838 c-66 -12 -61 1 -80 -209 -16 -183 5 -470 51 -714 26 -134
110 -469 157 -624 111 -369 359 -931 573 -1301 67 -115 274 -433 318 -489 l19
-23 56 32 c31 18 59 35 61 39 3 4 -43 76 -100 161 -284 420 -505 845 -679
1305 -170 451 -281 935 -304 1322 -8 135 -1 365 14 471 7 48 11 46 -86 30z"/>
<path d="M12330 7649 c-268 -81 -531 -164 -540 -169 -8 -5 -7 -24 4 -64 8 -32
17 -60 19 -63 7 -6 54 9 357 112 225 77 259 86 300 80 72 -11 165 -60 223
-120 l53 -54 59 18 c33 10 61 23 63 29 6 18 -128 145 -189 180 -62 35 -192 73
-248 71 -20 0 -65 -10 -101 -20z"/>
<path d="M10609 7473 c-43 -112 -75 -360 -64 -498 24 -329 90 -603 216 -896
58 -134 50 -129 141 -89 l46 20 -64 157 c-172 426 -230 908 -148 1227 8 32 13
64 11 70 -4 10 -89 36 -118 36 -5 0 -14 -12 -20 -27z"/>
<path d="M12167 7161 c-62 -24 -68 -29 -80 -66 -7 -26 -12 -106 -11 -225 0
-151 4 -203 22 -285 31 -146 91 -328 105 -322 7 3 32 13 57 22 25 10 49 22 54
26 5 4 -7 68 -27 146 -64 243 -80 433 -52 617 17 115 17 116 8 115 -5 -1 -38
-13 -76 -28z"/>
<path d="M3970 6224 c-146 -64 -326 -142 -400 -174 -289 -124 -283 -121 -304
-176 -224 -590 -253 -985 -124 -1692 23 -128 20 -126 111 -88 44 19 44 18 17
181 -93 572 -76 922 65 1350 74 228 12 179 520 402 242 106 444 194 449 196
11 4 -44 110 -59 113 -5 2 -129 -49 -275 -112z"/>
<path d="M8505 5806 c-93 -41 -235 -103 -315 -138 -440 -197 -1259 -558 -1440
-636 -63 -28 -214 -94 -335 -147 -121 -53 -312 -137 -425 -185 -287 -123 -360
-157 -360 -168 0 -26 52 -123 63 -119 7 3 293 127 637 275 738 318 1189 514
1430 622 678 301 922 410 948 424 l31 16 -26 57 c-14 32 -28 61 -32 65 -3 4
-82 -26 -176 -66z"/>
<path d="M3780 5721 l-65 -26 -12 -60 c-7 -33 -17 -133 -23 -223 -30 -476 94
-1145 320 -1717 92 -235 335 -752 370 -788 7 -8 120 42 120 53 0 3 -39 84 -86
180 -229 465 -357 798 -453 1175 -44 174 -91 427 -113 600 -18 153 -16 598 4
728 8 54 12 99 9 101 -3 2 -35 -8 -71 -23z"/>
<path d="M8495 5384 c-149 -70 -611 -278 -1095 -494 -162 -72 -353 -158 -425
-190 -71 -32 -335 -149 -585 -260 -250 -111 -456 -203 -458 -204 -2 -3 47
-118 53 -124 3 -4 621 267 1380 606 149 66 371 165 495 220 124 55 355 159
513 231 159 72 292 131 296 131 5 0 14 7 21 15 10 12 8 26 -10 75 -12 33 -28
60 -34 59 -6 0 -74 -30 -151 -65z"/>
<path d="M2805 4988 c-71 -33 -166 -77 -211 -98 l-80 -37 -18 -82 c-71 -328
-8 -844 162 -1326 54 -154 130 -345 142 -359 5 -4 32 5 62 21 38 20 53 34 52
48 -1 11 -29 90 -62 175 -103 263 -189 596 -224 860 -15 122 -13 425 4 509
l13 65 162 75 c89 42 165 79 169 83 8 9 -25 128 -35 127 -3 0 -64 -27 -136
-61z"/>
<path d="M2365 3749 c-22 -12 -124 -66 -227 -120 -211 -113 -195 -94 -207
-247 -9 -115 3 -248 39 -423 41 -198 96 -364 179 -534 93 -191 124 -228 246
-293 54 -28 100 -50 101 -49 2 1 -29 54 -68 117 -169 274 -270 528 -329 832
-28 142 -34 395 -9 410 8 5 94 52 190 105 96 53 177 97 179 99 6 5 -40 124
-48 124 -3 -1 -24 -10 -46 -21z"/>
</g>
</svg>
